<?xml version="1.0" encoding="utf-8"?>
<!-- Generator: Adobe Illustrator 25.4.1, SVG Export Plug-In . SVG Version: 6.00 Build 0)  -->
<svg version="1.1" id="Layer_1" xmlns="http://www.w3.org/2000/svg" xmlns:xlink="http://www.w3.org/1999/xlink" x="0px" y="0px"
	 viewBox="0 0 805.5 315" style="enable-background:new 0 0 805.5 315;" xml:space="preserve">
<style type="text/css">
	.st0{fill:#28327B;}
	.st1{fill:#F15922;}
</style>
<g>
	<g>
		<g>
			<path class="st0" d="M262.3,246.8c-0.1,0.8-0.3,1.5-0.7,2.1c-0.4,0.6-0.8,1.1-1.4,1.5c-0.5,0.3-1.1,0.6-1.7,0.8
				c-0.6,0.2-1.2,0.3-1.9,0.3h-2.5v-4.3h1.7c0.5,0,0.9-0.2,1.3-0.6c0.4-0.4,0.7-0.8,0.8-1.2l2.5-21h4.6L262.3,246.8z M263.5,219.2
				c-1.6,0-2.9-0.6-4-1.7c-0.9-0.9-1.6-2-1.9-3.4l-3.4-15h4.8l3.2,14.2c0.1,0.5,0.5,0.8,1,1.1c0.6,0.3,1.1,0.5,1.5,0.5h1.9v4.3
				H263.5z M299.2,251.6c-0.5,0-1.2-0.2-1.9-0.5c-0.7-0.3-1.3-0.6-1.7-1l-3.8-3.6c0,1.5-0.5,2.7-1.4,3.6c-0.9,0.9-2.2,1.4-3.7,1.4
				h-2.5c-1.3,0-2.4-0.4-3.2-1.2c-0.7-0.6-1.3-1.4-1.7-2.6l-2.5-6.3l-1.9,5.7c-0.2,0.7-0.5,1.3-0.9,1.9c-0.4,0.5-0.9,1-1.4,1.4
				c-1.1,0.8-2.3,1.2-3.6,1.2h-3.3v-4.1h1.9c0.6,0,1.3-0.2,1.9-0.7c0.7-0.5,1.1-1,1.3-1.5l3-8.7h-7.2v-4.2h8.2v-6.9h-1.4
				c-0.2,1-0.7,2-1.5,2.8c-0.4,0.5-0.8,0.8-1.3,1.1c-0.5,0.2-1,0.4-1.6,0.4h-2.5v-4.3h1.1c0.3,0,0.7-0.1,1-0.4
				c0.3-0.3,0.6-0.6,0.6-0.9l1.7-6.7h4.4l-0.9,3.9h10.8v4.2h-5.6v6.9h6.4v4.2h-7.3l-0.9,2.7h3.2l2.7,7.1c0.1,0.3,0.3,0.5,0.6,0.8
				c0.3,0.2,0.6,0.3,1,0.3h1.1c0.4,0,0.7-0.2,1-0.5s0.5-0.7,0.5-1.1l0.9-20.5h4.3l-0.7,15.2l3.6,3.9v-23.3h-8.9v-4.3h9l-7-9.7h5.3
				l2.8,3.8l4.6-7.5h-13.3v-4.2H307v4.1l-7.1,11.8l1.3,1.8h6.7v11.6h-4.5v-7.4h-2.9v10.6h7.4v4.4h-7.4v11.2h8.5v4.3H299.2z
				 M283.6,204.5c-0.2,0.5-0.5,0.8-0.8,1.1c-0.3,0.3-0.6,0.6-1,0.8c-0.9,0.5-1.8,0.7-2.9,0.7h-6v1.5c0,0.6,0.3,1.2,0.8,1.9
				c0.5,0.7,1.1,1,1.8,1h10.2v4.2h-11.3c-1.1,0-2-0.2-2.9-0.6c-0.8-0.4-1.5-0.9-2.1-1.6c-0.9-1.1-1.3-2.5-1.3-4.1v-11h4.8v4.8h5.1
				c0.3,0,0.7-0.1,1-0.4c0.3-0.3,0.6-0.5,0.7-0.8l1-2.3h5.2L283.6,204.5z"/>
			<path class="st0" d="M367.7,250c-0.7,0.6-1.4,1.1-2.3,1.5c-0.9,0.3-1.8,0.5-2.9,0.5H359v-4.3h3.1c0.7,0,1.4-0.3,2-0.8
				c0.6-0.5,1-1.2,1-1.9v-34.7h-6.2l-2.2,34.3c-0.1,0.9-0.3,1.8-0.7,2.7c-0.4,0.8-0.9,1.6-1.6,2.3c-0.7,0.7-1.6,1.2-2.6,1.6
				c-1,0.4-2.1,0.6-3.3,0.6h-31.8v-4h13.7v-3.9H318v-4h12.3v-3.6h-12.1v-20h12.1v-3.8h-13.8v-4h13.8v-4h-12.2v-4h22.6
				c0.3,0,0.6-0.1,0.8-0.4c0.2-0.2,0.3-0.5,0.3-0.8v-1h4.9v1.8c0,1.2-0.4,2.2-1.3,3c-0.9,0.9-2,1.3-3.5,1.3h-7v4h12.8v4h-12.8v3.8
				h11.9v12.4c0,1.1-0.2,2.1-0.6,3s-0.9,1.7-1.6,2.4c-1.5,1.5-3.4,2.2-5.8,2.2h-3.9v3.6h12.1v4h-12.1v3.9h11.7c1.7,0,3-0.4,3.9-1.2
				c1-0.9,1.5-2.1,1.7-3.6l2-32.6h-5v-4.3h5.3l0.3-7.7h4.8l-0.4,7.7h10.6v38.8C369.8,247,369.1,248.7,367.7,250z M330.3,220.3h-7.5
				v4h7.5V220.3z M330.3,228.1h-7.5v4.3h7.5V228.1z M342.2,220.3h-7.4v4h7.4V220.3z M342.2,228.1h-7.4v4.3h4.3
				c0.8,0,1.6-0.3,2.2-0.9c0.6-0.6,1-1.3,1-2V228.1z"/>
			<path class="st0" d="M403.6,237.5c-1.2,0-2.2,0.1-3.2,0.3c-0.9,0.2-1.8,0.4-2.6,0.8l-2.5,1.1v5.3c0,2.1-0.6,3.8-1.8,5
				c-0.6,0.6-1.3,1-2.3,1.4s-2,0.5-3.2,0.5h-4.3v-4.2h4c0.9,0,1.6-0.3,2.2-0.8c0.6-0.6,0.9-1.2,0.9-2V241l-2.3,1.1
				c-1.4,0.6-2.9,0.9-4.5,0.9l-5.5,0.1v-4.3h5.6c0.7,0,1.3-0.1,1.9-0.2c0.6-0.2,1.2-0.3,1.7-0.6l3.2-1.4v-5.1l7.3-4.3h-10.8
				l-0.6,1.5c-0.6,1.2-1.4,2.3-2.5,3.1c-0.5,0.4-1.1,0.7-1.7,0.9c-0.6,0.2-1.3,0.3-2.2,0.3h-2.5v-4.1h1.3c0.7,0,1.3-0.2,2-0.5
				c0.7-0.3,1.1-0.8,1.3-1.3l3.8-8.9h-7.9v-4.3h10v-6.4h-8.7v-4.2h8.7v-4.7h4.8v4.7h4.7v4.2h-4.7v6.4h3.1l5.8-13.4h5.1l-5.8,13.4
				h3.8v4.3h-13.9l-2.1,4.8h16.3v4l-10.1,6.2v1.7l2.3-0.7c0.7-0.2,1.6-0.5,2.6-0.6c1-0.2,1.9-0.3,2.7-0.3h4.6v4.4H403.6z M429,251.6
				c-0.5,0-1-0.1-1.5-0.4c-0.5-0.2-1.1-0.5-1.6-0.9c-0.6-0.4-1.1-0.9-1.5-1.4c-0.5-0.5-0.8-1-1-1.4l-3.5-7.8l-2.7,7.7
				c-0.2,0.7-0.6,1.3-1.1,1.8c-0.5,0.5-1,0.9-1.5,1.3c-1.2,0.7-2.6,1-4.3,1h-5.3v-4.1h4.5c0.8,0,1.6-0.2,2.3-0.6
				c0.7-0.4,1.2-1,1.5-1.9l3.9-11.4l-5.9-12.9h4.9l3.2,6.9l2.8-8.7c0.2-0.7,0.4-1.5,0.5-2.3c0.1-0.8,0.2-1.6,0.2-2.5v-2.9h-7.7
				l-0.9,3.3c-0.5,1.4-1.4,2.6-2.7,3.5c-1.2,0.8-2.5,1.2-3.9,1.2h-1.1v-4.3c1.1,0,1.9-0.2,2.5-0.7c0.6-0.5,0.9-1.1,1.1-1.8l3.1-14.7
				h4.9l-2.1,9h16.7v4.4h-5.3v2.9c0,0.9-0.1,1.9-0.2,3c-0.2,1.1-0.4,2.1-0.7,3l-4.3,13.4l5.4,11.6c0.3,0.6,0.7,1.1,1.2,1.6
				c0.5,0.5,1.1,0.7,1.6,0.7h2.7v4.1H429z"/>
			<path class="st0" d="M446,248.8c-0.2,0.5-0.6,0.9-1,1.3c-0.4,0.5-0.9,0.8-1.4,1.1c-0.5,0.3-1,0.4-1.5,0.4h-2.5v-4.2h1.1
				c0.3,0,0.6-0.1,0.9-0.4c0.3-0.3,0.5-0.6,0.5-0.9v-10.8h4.3v12.1C446.4,247.9,446.3,248.3,446,248.8z M448,228.5h5.7
				c0.4,0,0.8-0.2,1.2-0.6c0.4-0.4,0.6-0.8,0.6-1.2v-4h4.3v5.3c0,1.1-0.4,2.1-1.3,3c-0.5,0.5-1,0.9-1.7,1.2
				c-0.7,0.3-1.4,0.5-2.1,0.5h-13.8v-3.4l12.3-14.4h-12.5v-3.4l12.5-13.2h6.2l-11.7,12.4h12.2v3.8L448,228.5z M452.9,251.6
				c-0.5,0-0.9-0.1-1.4-0.4c-0.5-0.3-0.9-0.6-1.3-1c-0.4-0.5-0.8-0.9-1-1.4c-0.3-0.5-0.4-1-0.4-1.4v-12.1h4.1v11.2
				c0,0.2,0.1,0.4,0.3,0.6c0.2,0.2,0.4,0.3,0.6,0.3h0.7v4.2H452.9z M469,247.4c-0.3,1.2-0.9,2.1-1.9,3c-0.5,0.4-1,0.7-1.5,0.9
				c-0.6,0.2-1.1,0.3-1.7,0.3h-4.1c-0.5,0-1-0.2-1.5-0.5s-1-0.7-1.5-1.2c-0.4-0.5-0.7-1-0.9-1.5c-0.2-0.6-0.4-1.1-0.4-1.7v-11.4h4.1
				v10.4c0,0.3,0.2,0.7,0.6,1.1c0.4,0.4,0.8,0.6,1.1,0.6h1.5c0.4,0,0.8-0.2,1.2-0.5c0.4-0.4,0.7-0.8,0.7-1.2l2.4-9.5h4.8L469,247.4z
				 M480,207.4v4.9h12.8v15.3c0,0.7-0.2,1.4-0.5,2.2c-0.3,0.7-0.8,1.4-1.4,2c-0.6,0.6-1.2,1.1-1.9,1.4c-0.7,0.4-1.5,0.6-2.3,0.6H480
				v17.9h-4.6v-17.9h-13v-21.4h13v-4.9h-14.7v-4.1h14.7v-4.9h4.6v4.9h14v4.1H480z M475.5,226.8h-2c-0.4,0-0.8-0.1-1.2-0.2
				c-0.4-0.1-0.9-0.3-1.3-0.6c-0.4-0.2-0.8-0.6-1.1-1c-0.3-0.4-0.5-0.8-0.6-1.3l-1.2-5.2h3.7l0.9,3.4c0.1,0.3,0.3,0.6,0.5,0.8
				c0.3,0.2,0.6,0.3,1,0.3h1.4v-6.7h-8.4v13.1h8.4V226.8z M488.5,216.5H480v6.7h0.9c0.3,0,0.6-0.1,0.9-0.4c0.3-0.3,0.5-0.5,0.6-0.8
				l1.1-3.3h3.8l-1.7,5.4c-0.3,0.8-0.7,1.4-1.4,1.9c-0.7,0.6-1.4,0.9-2,0.9H480v2.8h6.1c0.5,0,0.9-0.3,1.5-0.8
				c0.5-0.6,0.8-1.1,0.8-1.7V216.5z M491.1,251.6c-0.9,0-1.8-0.3-2.7-1c-0.5-0.3-0.8-0.7-1.2-1.1c-0.3-0.4-0.6-0.9-0.7-1.4
				l-3.3-11.9h4.8l2.7,9.9c0.1,0.4,0.3,0.7,0.7,1c0.4,0.3,0.8,0.4,1.3,0.4h1.9v4.2H491.1z"/>
			<path class="st0" d="M502.2,251.9v-4.3h7.1v-32.3h-6.6V211h6.6v-12.4h4.9V211h6.2v4.3h-6.2v32.3h6.4v4.3H502.2z M519.4,225v-4.3
				h9.2l-4.2-9.8h5.4l4.2,9.8h7.7l4.1-9.8h5.2l-4.1,9.8h9.3v4.3H519.4z M520.7,208.5v-4.3h14.5v-5.6h4.8v5.6h14.7v4.3H520.7z
				 M550.9,249.5c-0.7,0.7-1.6,1.3-2.6,1.8c-1,0.4-2.2,0.6-3.6,0.6h-21.5v-21.7h29.6v14C552.8,246.4,552.2,248.1,550.9,249.5z
				 M547.8,234.5H528v13.2h16.3c1,0,1.8-0.3,2.5-0.9c0.7-0.6,1-1.3,1-2.3V234.5z"/>
			<path class="st0" d="M564.2,208v-4.3h8.9v-5.3h4.8v5.3h9.1v4.3H564.2z M565.5,216.8v-4.1h20.2v4.1H565.5z M565.5,225.7v-4.3h20.2
				v4.3H565.5z M585.1,246.9c-0.4,0.9-0.9,1.8-1.6,2.5c-0.7,0.7-1.5,1.3-2.4,1.7c-1,0.4-2.1,0.6-3.4,0.6h-11.7v-21.3h19.7V244
				C585.7,245,585.5,245.9,585.1,246.9z M581,234.6h-10.4v12.8h6.6c0.4,0,0.8-0.1,1.3-0.3c0.5-0.2,0.9-0.5,1.2-0.9s0.7-0.8,0.9-1.2
				c0.2-0.4,0.3-0.8,0.3-1.2V234.6z M594.2,250.1c-0.5,0.5-1,0.8-1.7,1.1c-0.7,0.3-1.4,0.4-2.2,0.4h-3.5v-4.3h2.2
				c1.2,0,1.9-0.7,1.9-2v-46.8h4.8v47.7C595.8,247.8,595.2,249.1,594.2,250.1z M602,250.4v-50.2h4.5v50.2H602z M612.6,251.7v-53.2
				h4.7v53.2H612.6z"/>
			<path class="st0" d="M654.9,241.8v3c0,1.9-0.6,3.6-1.8,4.9c-0.6,0.7-1.4,1.2-2.4,1.6s-2,0.6-3.1,0.6H638v-4h8.3
				c1.1,0,2-0.3,2.7-1c0.7-0.6,1.1-1.5,1.1-2.6v-2.4h-24.6V238h24.6v-1.9l10.6-3.4h-27v-3.9h37.5v3.8l-16.2,5.4h24.7v3.8H654.9z
				 M674.4,230.2v-5.6h-43.5v5.6H626V221h2.5v-21.1h7.7c0.4,0,0.7-0.2,0.9-0.5c0.2-0.3,0.3-0.7,0.3-1h4.8c0,1.8-0.4,3.2-1.2,4.1
				c-0.8,0.9-2,1.3-3.5,1.3h-3.8v3.5h8v3.7h-8v3.1h8v3.6h-8v3.3h38.2v-3.3h-8.3V214h8.3v-3.1h-8.3v-3.7h8.3v-3.3h-8.3v-4h13.1v21
				h2.7v9.3H674.4z M658.5,207.5c-1.3,0-2.4-0.2-3.2-0.5c-0.8-0.3-1.7-0.9-2.7-1.6c-0.7,0.6-1.5,1.1-2.5,1.5c-0.9,0.4-1.9,0.6-3,0.6
				h-4.2v-3.2h3.4c0.6,0,1.2-0.1,1.6-0.3c0.5-0.2,0.9-0.6,1.4-1l-5.3-4.6h5.8l2.6,2.2l2.7-2.2h5.9l-5.4,4.6c0.5,0.5,1,0.9,1.5,1.1
				c0.6,0.2,1.2,0.3,1.9,0.3h3.1v3.2H658.5z M658.1,218.6c-0.7,0-1.4-0.1-2.1-0.3c-0.7-0.2-1.4-0.5-1.9-0.9l-1.5-1.1
				c-0.7,0.7-1.6,1.3-2.7,1.7c-1,0.4-2.1,0.6-3.3,0.6H643v-3.2h2.6c0.3,0,0.8-0.1,1.4-0.2c0.6-0.1,1-0.3,1.4-0.6l1.2-0.9l-5.4-4.5
				h6.1l2.4,2l2.2-2h5.9l-5.1,4.3c0.4,0.5,0.9,0.9,1.6,1.2c0.7,0.4,1.4,0.5,1.9,0.5h3v3.2H658.1z"/>
			<path class="st0" d="M705.6,240.3c-0.4,0.9-1,1.6-1.7,2.3c-0.7,0.7-1.6,1.2-2.6,1.5s-2.1,0.6-3.2,0.6h-5v7.2h-4.6v-52.8h17.7
				v15.2c0,1.3-0.4,2.6-1.1,3.8c-0.3,0.5-0.7,1-1.1,1.5c-0.4,0.4-0.9,0.8-1.4,1c1.4,1,2.3,2,2.8,3.1c0.5,1,0.8,2.2,0.8,3.5v10.5
				C706.3,238.5,706,239.4,705.6,240.3z M701.4,203.5h-8.3v15.1h3.9c0.6,0,1.1-0.1,1.7-0.3c0.5-0.2,1-0.5,1.4-0.9
				c0.4-0.3,0.7-0.8,1-1.2c0.2-0.5,0.4-1,0.4-1.5V203.5z M701.6,227.3c0-0.5-0.1-1.1-0.4-1.6c-0.2-0.5-0.6-1-1-1.4s-0.9-0.7-1.5-1
				c-0.6-0.2-1.2-0.4-1.8-0.4h-3.9v17.6h4.6c0.5,0,1-0.1,1.5-0.4c0.5-0.2,0.9-0.6,1.3-1s0.7-0.8,0.9-1.3c0.2-0.5,0.3-0.9,0.3-1.4
				V227.3z M736.6,251.9c-2.5,0-4.5-0.7-5.9-2.2c-0.7-0.7-1.3-1.5-1.7-2.5c-0.4-1-0.6-2.1-0.6-3.4v-13.9h-7.7v14.7
				c0,2-0.7,3.8-2,5.2c-0.7,0.7-1.4,1.2-2.3,1.5c-0.9,0.4-2,0.6-3.2,0.6h-6.4v-4.4l5.4,0.1c1.2,0,2.1-0.3,2.8-1.1
				c0.7-0.7,1-1.5,1-2.5v-14.2h-7.5v-4.3h33v4.3h-8.1v13.6c0,1.2,0.4,2.2,1.2,3c0.8,0.7,1.8,1.1,3,1.1h4.9v4.3H736.6z M735.9,213.1
				v-5.4h-21.6v5.4h-4.8v-9.8h12.7v-4.9h4.9v4.9h13.7v9.8H735.9z M712.4,219.4v-4.3h25.7v4.3H712.4z"/>
		</g>
	</g>
	<g>
		<g>
			<g>
				<path class="st0" d="M264.1,153.3l8.4,11.9l7.8-11.9h-4.8v-4.8h15.4v4.8h-5l-10.8,16.2v12.7h5.3v4.8h-16.3v-4.8h5.2v-12.7
					l-11.5-16.2h-4.7v-4.8h15.8v4.8H264.1z"/>
				<path class="st0" d="M330.1,167.7c0,3.9-0.9,7.4-2.6,10.5c-1.7,3.1-4.1,5.4-7.2,7.1c-3.1,1.7-6.5,2.5-10.4,2.5
					c-3.8,0-7.2-0.9-10.2-2.6c-3-1.7-5.3-4.1-7-7.2c-1.7-3.1-2.5-6.5-2.5-10.3c0-3.8,0.8-7.2,2.5-10.2c1.7-3,4-5.3,7-7
					c3-1.7,6.4-2.5,10.2-2.5c4,0,7.5,0.9,10.5,2.6c3.1,1.7,5.4,4.1,7.1,7.1C329.2,160.6,330.1,163.9,330.1,167.7z M310.1,182.6
					c2.6,0,5-0.7,7.1-2.1s3.7-3.2,4.8-5.5c1.1-2.3,1.7-4.7,1.7-7.3c0-2.6-0.6-5.1-1.8-7.4c-1.2-2.3-2.9-4-5-5.3
					c-2.1-1.3-4.5-2-7.2-2c-2.6,0-4.9,0.6-6.9,1.9c-2,1.3-3.6,3-4.7,5.3c-1.1,2.2-1.7,4.7-1.7,7.4c0,2.9,0.6,5.5,1.7,7.8
					c1.1,2.3,2.7,4,4.7,5.3S307.4,182.6,310.1,182.6z"/>
				<path class="st0" d="M340.6,153.3V173c0,3.5,0.7,6,2,7.6c1.3,1.6,3.3,2.4,5.8,2.4c2.6,0,4.6-0.8,5.9-2.4c1.4-1.6,2-4.1,2-7.6
					v-19.7h-4.5v-4.8h15.1v4.8h-4.8v20.2c0,4.6-1.2,8.1-3.5,10.5c-2.3,2.4-5.7,3.6-10.2,3.6c-4.5,0-7.9-1.2-10.2-3.6
					c-2.3-2.4-3.4-6-3.4-10.9v-19.9H330v-4.8h15.1v4.8H340.6z"/>
				<path class="st0" d="M394.9,162.6v-9.3h-8v28.9h5v4.8h-15.8v-4.8h4.9v-28.9h-7.9v9.3h-4.8v-14.1h31.2v14.1H394.9z"/>
				<path class="st0" d="M412.8,153.3v10.9h16.8v-10.9h-4.5v-4.8h14.8v4.8h-4.5v28.9h4.5v4.8h-14.8v-4.8h4.5V169h-16.8v13.2h4.6v4.8
					h-14.7v-4.8h4.3v-28.9h-4.3v-4.8h14.7v4.8H412.8z"/>
				<path class="st0" d="M481.8,153.2l10.4,29.1h4.3v4.8h-15.2v-4.8h5l-3-8.7h-14l-3,8.7h4.9v4.8H456v-4.8h4.7l10.4-29.1h-4.6v-4.7
					h20v4.7H481.8z M476.5,153.2h-0.2l-5.5,15.8h11L476.5,153.2z"/>
				<path class="st0" d="M528.1,152.7v-4.2h4.9v12.4h-5c-1.3-2.5-3-4.4-5.2-5.8c-2.2-1.4-4.6-2.1-7.2-2.1c-2.5,0-4.8,0.7-6.8,2
					c-2,1.3-3.6,3.1-4.7,5.4c-1.1,2.2-1.7,4.7-1.7,7.2c0,2.7,0.6,5.1,1.8,7.4s2.8,4.1,4.8,5.4c2,1.3,4.3,2,6.8,2
					c3.1,0,5.8-0.9,8.2-2.8c2.4-1.9,4.1-4.6,5.2-8l4.9,2.6c-1.3,4.3-3.7,7.6-7,10c-3.4,2.4-7.3,3.5-11.9,3.5c-3.7,0-7.1-0.9-10-2.7
					c-2.9-1.8-5.2-4.2-6.8-7.2c-1.6-3-2.4-6.3-2.4-9.9c0-3.9,0.8-7.4,2.5-10.4c1.6-3.1,3.9-5.4,6.8-7.1c2.9-1.7,6.2-2.5,10-2.5
					c2.5,0,4.8,0.4,6.9,1.3C524.4,149.9,526.3,151.2,528.1,152.7z"/>
				<path class="st0" d="M560.5,153.2l10.4,29.1h4.3v4.8H560v-4.8h5l-3-8.7h-14l-3,8.7h4.9v4.8h-15.3v-4.8h4.7l10.4-29.1H545v-4.7
					h20v4.7H560.5z M555.2,153.2H555l-5.5,15.8h11L555.2,153.2z"/>
				<path class="st0" d="M614.7,167.2c0,6.6-2,11.6-6,14.9c-4,3.3-9.9,5-17.8,5h-14.4v-4.8h5.2v-28.9h-5.2v-4.8h14.7
					c7.9,0,13.8,1.5,17.7,4.5C612.7,156,614.7,160.7,614.7,167.2z M608.3,167.5c0-3.3-0.6-5.9-1.7-8s-3-3.6-5.5-4.6
					c-2.5-1-5.8-1.5-9.9-1.5h-3.7v28.9h3.7c5.9,0,10.3-1.2,13-3.6S608.3,172.6,608.3,167.5z"/>
				<path class="st0" d="M645.3,159.8v-6.4h-16.5v11.5h14.4v4.8h-14.4v12.6h16.5v-7h4.8v11.8H618v-4.8h5v-28.9h-5v-4.8H650v11.3
					H645.3z"/>
				<path class="st0" d="M687,148.5h13.4v4.8h-4.7v28.9h4.7v4.8h-14.5v-4.8h4.6v-28.9l-13.3,34.2H676l-13.2-34.2v28.9h4.2v4.8h-13.7
					v-4.8h4.7v-28.9h-4.7v-4.8h13.2l10.2,26.4L687,148.5z"/>
				<path class="st0" d="M713.9,153.3l8.4,11.9l7.8-11.9h-4.8v-4.8h15.4v4.8h-5l-10.8,16.2v12.7h5.3v4.8h-16.3v-4.8h5.2v-12.7
					l-11.5-16.2h-4.7v-4.8h15.8v4.8H713.9z"/>
			</g>
		</g>
		<g>
			<g>
				<path class="st0" d="M284.2,104.5v-4.2h4.9v12.4h-5c-1.3-2.5-3-4.4-5.2-5.8s-4.6-2.1-7.2-2.1c-2.5,0-4.8,0.7-6.8,2
					c-2,1.3-3.6,3.1-4.7,5.4c-1.1,2.2-1.7,4.7-1.7,7.2c0,2.7,0.6,5.1,1.8,7.4c1.2,2.3,2.8,4.1,4.8,5.4c2,1.3,4.3,2,6.8,2
					c3.1,0,5.8-0.9,8.2-2.8c2.4-1.9,4.1-4.6,5.2-8l4.9,2.6c-1.3,4.3-3.7,7.6-7,10c-3.4,2.4-7.3,3.5-11.9,3.5c-3.7,0-7.1-0.9-10-2.7
					c-2.9-1.8-5.2-4.2-6.8-7.2c-1.6-3-2.4-6.3-2.4-9.9c0-3.9,0.8-7.4,2.5-10.4c1.6-3.1,3.9-5.4,6.8-7.1s6.2-2.5,10-2.5
					c2.5,0,4.8,0.4,6.9,1.3S282.4,102.9,284.2,104.5z"/>
				<path class="st0" d="M332.6,119.4c0,3.9-0.9,7.4-2.6,10.5c-1.7,3.1-4.1,5.4-7.2,7.1c-3.1,1.7-6.5,2.5-10.4,2.5
					c-3.8,0-7.2-0.9-10.2-2.6c-3-1.7-5.3-4.1-7-7.2c-1.7-3.1-2.5-6.5-2.5-10.3c0-3.8,0.8-7.2,2.5-10.2c1.7-3,4-5.3,7-7
					c3-1.7,6.4-2.5,10.2-2.5c4,0,7.5,0.9,10.5,2.6c3.1,1.7,5.4,4.1,7.1,7.1C331.7,112.3,332.6,115.7,332.6,119.4z M312.6,134.3
					c2.6,0,5-0.7,7.1-2.1c2.1-1.4,3.7-3.2,4.8-5.5c1.1-2.3,1.7-4.7,1.7-7.3c0-2.6-0.6-5.1-1.8-7.4c-1.2-2.3-2.9-4-5-5.3
					c-2.1-1.3-4.5-2-7.2-2c-2.6,0-4.9,0.6-6.9,1.9c-2,1.3-3.6,3-4.7,5.3c-1.1,2.2-1.7,4.7-1.7,7.4c0,2.9,0.6,5.5,1.7,7.8
					c1.1,2.3,2.7,4,4.7,5.3C307.5,133.7,309.9,134.3,312.6,134.3z"/>
				<path class="st0" d="M356.6,104.9l10.4,29.1h4.3v4.8h-15.2V134h5l-3-8.8h-14l-3,8.8h4.9v4.8h-15.3V134h4.7l10.4-29.1h-4.6v-4.7
					h20v4.7H356.6z M351.3,104.9h-0.2l-5.5,15.8h11L351.3,104.9z"/>
				<path class="st0" d="M401.6,104.5v-4.2h4.9v12.4h-5c-1.3-2.5-3-4.4-5.2-5.8s-4.6-2.1-7.2-2.1c-2.5,0-4.8,0.7-6.8,2
					c-2,1.3-3.6,3.1-4.7,5.4c-1.1,2.2-1.7,4.7-1.7,7.2c0,2.7,0.6,5.1,1.8,7.4c1.2,2.3,2.8,4.1,4.8,5.4c2,1.3,4.3,2,6.8,2
					c3.1,0,5.8-0.9,8.2-2.8c2.4-1.9,4.1-4.6,5.2-8l4.9,2.6c-1.3,4.3-3.7,7.6-7,10c-3.4,2.4-7.3,3.5-11.9,3.5c-3.7,0-7.1-0.9-10-2.7
					c-2.9-1.8-5.2-4.2-6.8-7.2c-1.6-3-2.4-6.3-2.4-9.9c0-3.9,0.8-7.4,2.5-10.4c1.6-3.1,3.9-5.4,6.8-7.1s6.2-2.5,10-2.5
					c2.5,0,4.8,0.4,6.9,1.3S399.8,102.9,401.6,104.5z"/>
				<path class="st0" d="M420.5,105.1V116h16.8v-10.9h-4.5v-4.8h14.8v4.8h-4.5V134h4.5v4.8h-14.8V134h4.5v-13.2h-16.8V134h4.6v4.8
					h-14.7V134h4.3v-28.9h-4.3v-4.8H425v4.8H420.5z"/>
				<path class="st0" d="M460.5,105.1V134h4.2v4.8h-14.2V134h4.2v-28.9h-4.2v-4.8h14.2v4.8H460.5z"/>
				<path class="st0" d="M497.5,105.1H492v-4.8h15.8v4.8h-5.7v34.2h-6l-18.5-33V134h5.5v4.8h-15.8V134h5.5v-28.9h-5.5v-4.8h13.2
					l16.9,30V105.1z"/>
				<path class="st0" d="M544.4,104.5v-4.2h4.9v12.7h-4.9c-1.1-2.5-2.9-4.5-5.3-5.9c-2.4-1.5-5-2.2-7.7-2.2c-2.7,0-5,0.6-7.1,1.9
					c-2.1,1.3-3.7,3-4.8,5.2s-1.7,4.7-1.7,7.5c0,2.9,0.6,5.5,1.8,7.8c1.2,2.3,2.9,4,5.1,5.3c2.2,1.3,4.6,1.9,7.4,1.9
					c2.1,0,4-0.4,5.8-1.2c1.8-0.8,3.3-1.9,4.5-3.3s1.9-3,2.2-4.9h-7.1v-4.9h14v1.3c0,3.7-0.8,6.9-2.5,9.6c-1.7,2.7-4,4.8-6.9,6.3
					c-2.9,1.5-6.2,2.2-9.9,2.2c-4.2,0-7.8-0.8-11-2.5s-5.6-4-7.2-7c-1.7-3-2.5-6.5-2.5-10.5c0-3.8,0.8-7.2,2.5-10.2
					c1.7-3,4-5.3,6.9-7c3-1.7,6.3-2.5,10-2.5C536.2,99.6,540.7,101.2,544.4,104.5z"/>
				<path class="st0" d="M594,111.5v-6.4h-14.5v11.4H592v4.8h-12.5V134h4.9v4.8h-15.6V134h4.9v-28.9h-4.9v-4.8h29.9v11.3H594z"/>
				<path class="st0" d="M642.2,119.4c0,3.9-0.9,7.4-2.6,10.5c-1.7,3.1-4.1,5.4-7.2,7.1c-3.1,1.7-6.5,2.5-10.4,2.5
					c-3.8,0-7.2-0.9-10.2-2.6c-3-1.7-5.3-4.1-7-7.2c-1.7-3.1-2.5-6.5-2.5-10.3c0-3.8,0.8-7.2,2.5-10.2c1.7-3,4-5.3,7-7
					c3-1.7,6.4-2.5,10.2-2.5c4,0,7.5,0.9,10.5,2.6c3.1,1.7,5.4,4.1,7.1,7.1C641.4,112.3,642.2,115.7,642.2,119.4z M622.3,134.3
					c2.6,0,5-0.7,7.1-2.1c2.1-1.4,3.7-3.2,4.8-5.5c1.1-2.3,1.7-4.7,1.7-7.3c0-2.6-0.6-5.1-1.8-7.4c-1.2-2.3-2.9-4-5-5.3
					c-2.1-1.3-4.5-2-7.2-2c-2.6,0-4.9,0.6-6.9,1.9c-2,1.3-3.6,3-4.7,5.3c-1.1,2.2-1.7,4.7-1.7,7.4c0,2.9,0.6,5.5,1.7,7.8
					c1.1,2.3,2.7,4,4.7,5.3C617.1,133.7,619.5,134.3,622.3,134.3z"/>
				<path class="st0" d="M675.3,110.4c0,2.5-0.7,4.5-2.1,6.2c-1.4,1.7-3.4,2.8-5.9,3.5l6.8,13.9h4.7v4.8h-8.6l-8.5-18h-5.4V134h4.9
					v4.8h-16V134h5.2v-28.9h-5.2v-4.8h16c5,0,8.5,0.8,10.7,2.4S675.3,106.9,675.3,110.4z M669.3,110.3c0-1.8-0.6-3.1-1.7-3.9
					c-1.1-0.8-2.9-1.3-5.3-1.3h-6v11h5.6c2.5,0,4.4-0.4,5.6-1.3C668.7,113.8,669.3,112.4,669.3,110.3z"/>
			</g>
		</g>
	</g>
	<g>
		<g>
			<path class="st0" d="M262.4,66.4v18.1h2.6v3h-8.9v-3h2.6V66.4h-2.6v-3h8.9v3H262.4z"/>
			<path class="st0" d="M273.2,66.4v6.8h10.5v-6.8h-2.8v-3h9.2v3h-2.8v18.1h2.8v3h-9.2v-3h2.8v-8.3h-10.5v8.3h2.8v3h-9.2v-3h2.7
				V66.4h-2.7v-3h9.2v3H273.2z"/>
			<path class="st0" d="M298.2,66.4v18.1h2.8v3h-9.4v-3h3V66.4h-3v-3h9.8v3H298.2z M310.2,66.4l-7.5,8.4l7.7,9.7h2.6v3h-9.8v-3h2.7
				l-7.2-9.6l7.5-8.5h-2.8v-3h9.5v3H310.2z"/>
			<path class="st0" d="M326.8,64.9v-1.6h2.9v7.3h-2.9v-1.7c-1.2-1.9-3-2.8-5.1-2.8c-1.3,0-2.3,0.3-3,0.8c-0.7,0.5-1.1,1.3-1.1,2.3
				c0,1,0.3,1.7,1,2.2s1.7,0.9,3.1,1.3l2.8,0.8c1.8,0.5,3.2,1.1,4.1,1.9c1,0.8,1.6,1.6,1.9,2.5s0.4,1.9,0.4,3c0,2.2-0.7,3.9-2,5.2
				s-3.2,1.9-5.5,1.9c-2.2,0-4.2-0.8-6-2.4v2h-3v-8.8h3v2.1c1.4,2.6,3.3,4,5.6,4c1.4,0,2.4-0.3,3.2-1s1.1-1.7,1.1-3
				c0-1.7-1.2-2.9-3.6-3.6l-3-0.8c-2.2-0.6-3.8-1.5-4.8-2.5s-1.6-2.4-1.6-4.2c0-2.1,0.6-3.8,1.9-4.9c1.3-1.2,3-1.8,5.2-1.8
				C323.3,63,325.1,63.6,326.8,64.9z"/>
			<path class="st0" d="M351.3,70.8c0,2.2-0.7,4-2,5.3c-1.4,1.4-3.6,2.1-6.9,2.1h-3.2v6.2h3.1v3h-9.8v-3h3V66.4h-3v-3h9
				c2.4,0,4.3,0.3,5.8,0.8c1.4,0.5,2.4,1.3,3.1,2.4S351.3,69.1,351.3,70.8z M347.6,70.8c0-1.5-0.4-2.6-1.3-3.3c-0.9-0.7-2.4-1-4.5-1
				h-2.5v8.9h2.3c1.5,0,2.7-0.1,3.5-0.4c0.9-0.3,1.5-0.7,2-1.4C347.4,72.9,347.6,71.9,347.6,70.8z"/>
			<path class="st0" d="M378.7,75.4c0,2.5-0.5,4.6-1.6,6.5s-2.6,3.4-4.5,4.4s-4.1,1.6-6.5,1.6c-2.4,0-4.5-0.5-6.4-1.6
				c-1.9-1.1-3.3-2.6-4.4-4.5c-1-1.9-1.6-4.1-1.6-6.5c0-2.4,0.5-4.5,1.6-6.4c1.1-1.9,2.5-3.3,4.4-4.4s4-1.6,6.4-1.6
				c2.5,0,4.7,0.5,6.6,1.6s3.4,2.6,4.4,4.4C378.2,70.9,378.7,73,378.7,75.4z M366.2,84.7c1.7,0,3.1-0.4,4.4-1.3s2.3-2,3-3.4
				s1.1-3,1.1-4.6c0-1.7-0.4-3.2-1.1-4.6c-0.8-1.4-1.8-2.5-3.1-3.3c-1.3-0.8-2.8-1.2-4.5-1.2c-1.6,0-3.1,0.4-4.3,1.2
				c-1.3,0.8-2.2,1.9-2.9,3.3s-1,2.9-1,4.7c0,1.8,0.3,3.4,1,4.8c0.7,1.4,1.7,2.5,3,3.3C363,84.3,364.5,84.7,366.2,84.7z"/>
			<path class="st0" d="M399.4,69.7c0,1.5-0.4,2.8-1.3,3.9c-0.9,1.1-2.1,1.8-3.7,2.2l4.3,8.7h2.9v3h-5.4l-5.3-11.2h-3.4v8.2h3.1v3
				h-10v-3h3.3V66.4h-3.3v-3h10c3.1,0,5.3,0.5,6.7,1.5S399.4,67.5,399.4,69.7z M395.6,69.7c0-1.1-0.4-1.9-1.1-2.5
				c-0.7-0.5-1.8-0.8-3.3-0.8h-3.7v6.8h3.5c1.6,0,2.7-0.3,3.5-0.8C395.2,71.9,395.6,71,395.6,69.7z"/>
			<path class="st0" d="M419.5,72.2v-5.8h-5v18.1h3.1v3h-9.8v-3h3.1V66.4h-4.9v5.8h-3v-8.8h19.5v8.8H419.5z"/>
			<path class="st0" d="M437,64.9v-1.6h2.9v7.3H437v-1.7c-1.2-1.9-3-2.8-5.1-2.8c-1.3,0-2.3,0.3-3,0.8c-0.7,0.5-1.1,1.3-1.1,2.3
				c0,1,0.3,1.7,1,2.2s1.7,0.9,3.1,1.3l2.8,0.8c1.8,0.5,3.2,1.1,4.1,1.9c1,0.8,1.6,1.6,1.9,2.5s0.4,1.9,0.4,3c0,2.2-0.7,3.9-2,5.2
				s-3.2,1.9-5.5,1.9c-2.2,0-4.2-0.8-6-2.4v2h-3v-8.8h3v2.1c1.4,2.6,3.3,4,5.6,4c1.4,0,2.4-0.3,3.2-1s1.1-1.7,1.1-3
				c0-1.7-1.2-2.9-3.6-3.6l-3-0.8c-2.2-0.6-3.8-1.5-4.8-2.5s-1.6-2.4-1.6-4.2c0-2.1,0.6-3.8,1.9-4.9c1.3-1.2,3-1.8,5.2-1.8
				C433.6,63,435.3,63.6,437,64.9z"/>
		</g>
	</g>
</g>
<g>
	<g>
		<path class="st0" d="M109.1,171h20.2c9.3,0,17.3-6.4,19.5-15.4l2.7-11.6h-9l-0.3,1.3c-1.1,4.5-5.1,7.7-9.7,7.7h-19.1l8.5-36h36
			l4.2-18h-54v0h-9l-16.9,72L109.1,171L109.1,171z"/>
		<polygon class="st0" points="170.5,63 143.5,63 137.1,90 164.1,90 		"/>
		<path class="st0" d="M115.9,180l-8.5,36v0c-4.6,0-8-4.3-6.9-8.8l6.4-27.2h-27l-4.8,20.4c-3,12.6,6.6,24.6,19.5,24.6h10.7l-0.3,1.3
			c-1.1,4.5-5.1,7.7-9.7,7.7H67.2L63,252h36h11.2c9.3,0,17.3-6.4,19.5-15.4l13.3-56.6H115.9z"/>
	</g>
	<g>
		<path class="st1" d="M166.8,117l-12.7,54h27l12.7-54h20.2c9.3,0,17.3-6.4,19.5-15.4L234,99l0,0l2.1-9h-9l-0.3,1.3
			c-1.1,4.5-5.1,7.7-9.7,7.7H171L166.8,117L166.8,117z"/>
		<path class="st1" d="M218.6,126l-0.3,1.3c-1.1,4.5-5.1,7.7-9.7,7.7h-10.1l-4.2,18h11.2c9.3,0,17.3-6.4,19.5-15.4l2.7-11.6H218.6z"
			/>
		<polygon class="st1" points="206.5,63 179.5,63 173.1,90 200.1,90 		"/>
		<g>
			<path class="st1" d="M151.9,180L135,252h38.1l2.1-9h0c-5.7,0-9.9-5.3-8.6-10.8l12.3-52.2H151.9z"/>
			<path class="st1" d="M236.4,252l2.1-9h-1.2c-4.1,0-7.8-2.5-9.3-6.4L205.9,180h-27l23.1,59.3c3,7.7,10.4,12.7,18.6,12.7H236.4z"/>
		</g>
	</g>
</g>
</svg>
